<?xml version="1.0" encoding="UTF-8"?>
<svg id="svg" xmlns="http://www.w3.org/2000/svg" version="1.1" viewBox="0 0 400 187">
  <!-- Generator: Adobe Illustrator 29.5.1, SVG Export Plug-In . SVG Version: 2.1.0 Build 141)  -->
  <defs>
    <style>
      .st0, .st1, .st2, .st3 {
        fill: #fff;
      }

      .st1 {
        fill-rule: evenodd;
      }

      .st2 {
        stroke: #fff;
        stroke-linecap: round;
        stroke-miterlimit: 10;
        stroke-width: 5.3px;
      }

      .st4, .st3 {
        isolation: isolate;
      }

      .st3 {
        font-family: FranklinGothic-Book, 'Franklin Gothic Book';
        font-size: 48.8px;
      }
    </style>
  </defs>
  <g>
    <path class="st1" d="M187.8,10.7c-19.4,2.5-30.4,23.8-21.4,41.1,2.6,5.5,4.6,7,6.1,4.7-19-34.7,20.8-58.6,43.2-27.8,14.6,26.9-8.3,33.7-13.8,56.1-2.2,7.3-1,19.3-7.1,24-8.9,8.5-23.6,5.6-28.8-5.8-1.6-3.1-2-8.2-1.4-11.6-3.1-12.6-11.3,16.5,10.2,24.8,13.8,5.8,30-5.9,29.3-21.2.3-6,2.5-13.4,4.9-18.4,3.4-7.6,14.4-16.2,14.8-26.4,3.8-20.6-15.7-42.5-35.9-39.6"/>
    <path class="st1" d="M194.6,27.9c16.5,5.2,18.4,23,7.2,36.8-7.7,11.1-9.9,17.2-10.8,29.1,0,8.3-8.1,13.5-14.4,7.4-6.4-6.8-.2-14,.6-7.1.2,5.4,5.3,8.2,8.6,4.7,1.2-1.3,1.6-2.5,1.8-6.1.6-7.8,2.1-13.8,5.1-19.9,2.3-5.5,13.9-18.6,12.6-25.6,2-16.1-23.9-24.2-22.9-3.9.1,2.6,0,3.1-1.2,3.3-1.7.4-2.3-.9-2.3-4.4,0-9.7,7.2-16.5,15.6-14.4"/>
  </g>
  <g>
    <line class="st2" x1="98.9" y1="67.3" x2="98.9" y2="83.2"/>
    <line class="st2" x1="110" y1="73.2" x2="110" y2="93"/>
    <line class="st2" x1="121.1" y1="53" x2="121.1" y2="88.6"/>
    <line class="st2" x1="132.1" y1="63.8" x2="132.1" y2="97.6"/>
    <line class="st2" x1="143.1" y1="30.6" x2="143.1" y2="83.2"/>
    <line class="st2" x1="154.1" y1="53.8" x2="154.1" y2="96.6"/>
    <line class="st2" x1="165.2" y1="65.5" x2="165.2" y2="84.7"/>
  </g>
  <g>
    <rect class="st0" x="233.9" y="61" width="15" height="4.1"/>
    <rect class="st0" x="233.9" y="69.9" width="15" height="4.1"/>
    <rect class="st0" x="214.6" y="79" width="15" height="4.1"/>
    <rect class="st0" x="214.6" y="87.9" width="15" height="4.1"/>
    <rect class="st0" x="214.6" y="96.8" width="15" height="4.1"/>
    <rect class="st0" x="233.9" y="79" width="15" height="4.1"/>
    <rect class="st0" x="233.9" y="87.9" width="15" height="4.1"/>
    <rect class="st0" x="233.9" y="96.8" width="15" height="4.1"/>
    <rect class="st0" x="253.1" y="52" width="15" height="4.1"/>
    <rect class="st0" x="253.1" y="43" width="15" height="4.1"/>
    <rect class="st0" x="253.1" y="61" width="15" height="4.1"/>
    <rect class="st0" x="253.1" y="69.9" width="15" height="4.1"/>
    <rect class="st0" x="253.1" y="79" width="15" height="4.1"/>
    <rect class="st0" x="253.1" y="87.9" width="15" height="4.1"/>
    <rect class="st0" x="253.1" y="96.8" width="15" height="4.1"/>
    <rect class="st0" x="272.3" y="69.9" width="15" height="4.1"/>
    <rect class="st0" x="272.3" y="79" width="15" height="4.1"/>
    <rect class="st0" x="272.3" y="87.9" width="15" height="4.1"/>
    <rect class="st0" x="272.3" y="96.8" width="15" height="4.1"/>
  </g>
  <g class="st4">
    <text class="st3" transform="translate(96.9 159)"><tspan x="0" y="0">SQAT4PY</tspan></text>
  </g>
</svg>