<?xml version="1.0" encoding="UTF-8"?>
<svg id="svg" xmlns="http://www.w3.org/2000/svg" version="1.1" viewBox="0 0 400 187">
  <!-- Generator: Adobe Illustrator 29.5.1, SVG Export Plug-In . SVG Version: 2.1.0 Build 141)  -->
  <defs>
    <style>
      .st0 {
        fill: #09a6d5;
        stroke: #09a6d5;
        stroke-linecap: round;
        stroke-miterlimit: 10;
        stroke-width: 4px;
      }

      .st1 {
        fill: #fc2d25;
      }

      .st2 {
        fill: #b6b347;
      }

      .st3 {
        fill-rule: evenodd;
      }
    </style>
  </defs>
  <g>
    <path class="st3" d="M187.8,31.7c-19.4,2.5-30.4,23.8-21.4,41.1,2.6,5.5,4.6,7,6.1,4.7-19-34.7,20.8-58.6,43.2-27.8,14.6,26.9-8.3,33.7-13.8,56.1-2.2,7.3-1,19.3-7.1,24-8.9,8.5-23.6,5.6-28.8-5.8-1.6-3.1-2-8.2-1.4-11.6-3.1-12.6-11.3,16.5,10.2,24.8,13.8,5.8,30-5.9,29.3-21.2.3-6,2.5-13.4,4.9-18.4,3.4-7.6,14.4-16.2,14.8-26.4,3.8-20.6-15.7-42.5-35.9-39.6"/>
    <path class="st3" d="M194.6,48.9c16.5,5.2,18.4,23,7.2,36.8-7.7,11.1-9.9,17.2-10.8,29.1,0,8.3-8.1,13.5-14.4,7.4-6.4-6.8-.2-14,.6-7.1.2,5.4,5.3,8.2,8.6,4.7,1.2-1.3,1.6-2.5,1.8-6.1.6-7.8,2.1-13.8,5.1-19.9,2.3-5.5,13.9-18.6,12.6-25.6,2-16.1-23.9-24.2-22.9-3.9.1,2.6,0,3.1-1.2,3.3-1.7.4-2.3-.9-2.3-4.4,0-9.7,7.2-16.5,15.6-14.4"/>
  </g>
  <g>
    <line class="st0" x1="111" y1="87.3" x2="111" y2="98.3"/>
    <line class="st0" x1="120.1" y1="91.4" x2="120.1" y2="105.1"/>
    <line class="st0" x1="129.1" y1="77.4" x2="129.1" y2="102.1"/>
    <line class="st0" x1="138.1" y1="84.9" x2="138.1" y2="108.3"/>
    <line class="st0" x1="147.1" y1="61.9" x2="147.1" y2="98.3"/>
    <line class="st0" x1="156.1" y1="78" x2="156.1" y2="107.6"/>
    <line class="st0" x1="165.2" y1="86.1" x2="165.2" y2="99.4"/>
  </g>
  <rect class="st1" x="229.6" y="70.6" width="10.9" height="3"/>
  <rect class="st1" x="229.6" y="77.1" width="10.9" height="3"/>
  <rect class="st1" x="229.6" y="83.6" width="10.9" height="3"/>
  <rect class="st2" x="229.6" y="90.2" width="10.9" height="3"/>
  <rect class="st2" x="229.6" y="96.7" width="10.9" height="3"/>
  <rect class="st2" x="229.6" y="103.2" width="10.9" height="3"/>
  <rect class="st2" x="243.6" y="90.2" width="10.9" height="3"/>
  <rect class="st2" x="243.6" y="96.7" width="10.9" height="3"/>
  <rect class="st2" x="243.6" y="103.2" width="10.9" height="3"/>
  <rect class="st1" x="257.6" y="70.6" width="10.9" height="3"/>
  <rect class="st1" x="257.6" y="64" width="10.9" height="3"/>
  <rect class="st1" x="257.6" y="77.1" width="10.9" height="3"/>
  <rect class="st1" x="257.6" y="83.6" width="10.9" height="3"/>
  <rect class="st2" x="257.6" y="90.2" width="10.9" height="3"/>
  <rect class="st2" x="257.6" y="96.7" width="10.9" height="3"/>
  <rect class="st2" x="257.6" y="103.2" width="10.9" height="3"/>
  <rect class="st1" x="271.6" y="83.6" width="10.9" height="3"/>
  <rect class="st2" x="271.6" y="90.2" width="10.9" height="3"/>
  <rect class="st2" x="271.6" y="96.7" width="10.9" height="3"/>
  <rect class="st2" x="271.6" y="103.2" width="10.9" height="3"/>
  <rect class="st1" x="285.6" y="77.1" width="10.9" height="3"/>
  <rect class="st1" x="285.6" y="83.6" width="10.9" height="3"/>
  <rect class="st2" x="285.6" y="90.2" width="10.9" height="3"/>
  <rect class="st2" x="285.6" y="96.7" width="10.9" height="3"/>
  <rect class="st2" x="285.6" y="103.2" width="10.9" height="3"/>
</svg>